<svg xmlns="http://www.w3.org/2000/svg" xmlns:xlink="http://www.w3.org/1999/xlink" viewBox="0 0 112.92 138.22"><defs><style>.cls-1{fill:none;}.cls-2{clip-path:url(#clip-path);}.cls-3{fill:url(#linear-gradient);}.cls-4{fill:#2095be;}.cls-5{fill:url(#linear-gradient-2);}.cls-6{fill:#3068a4;}</style><clipPath id="clip-path" transform="translate(-0.08)"><rect class="cls-1" width="113" height="138"/></clipPath><linearGradient id="linear-gradient" x1="26.72" y1="-672.37" x2="99.5" y2="-674.31" gradientTransform="matrix(1, 0, 0, -1, 0, -603.03)" gradientUnits="userSpaceOnUse"><stop offset="0" stop-color="#335491"/><stop offset="1" stop-color="#1f8bb6"/></linearGradient><linearGradient id="linear-gradient-2" x1="30.05" y1="-648.78" x2="21.47" y2="-653.23" xlink:href="#linear-gradient"/></defs><g id="Layer_2" data-name="Layer 2"><g id="Logo"><g class="cls-2"><path class="cls-3" d="M113,46l-10.52-6.25a31.42,31.42,0,0,0-6.71-9.83l-.22-.22C90,23.45,83.69,20.54,77.2,21c-8.28.67-16.78,6.7-24.39,17.42a41,41,0,0,0-4.7-1.79c-13.2-5.13-25.29-9.82-32.22-28.8L13,0l-.9,8.26a122.18,122.18,0,0,0-.67,21.66A41.06,41.06,0,0,1,4.7,19l-2.91-6.7L.9,19.43C-4.25,62.3,16.11,71.46,34,79.5c-1.79,6.69-2.68,16.07-3.8,25.23-.45,4.24-.9,9.15-1.57,13.84-.89.23-1.79.23-2.46.45-7.16,1.12-12.31,1.79-13.65,5.36-1.12,2.9.9,5.8,1.79,6.92,2.24,3.13,5.59,6.92,9.18,6.92a2.89,2.89,0,0,0,1.34-.22c4-1.12,6-6.7,7.61-15.85a87.58,87.58,0,0,0,9.84-2.24c28.64-8.93,34-29,38.71-46.67C84.36,61,87.27,50,97.78,45.11,100.69,43.54,113,46,113,46ZM23.72,134c-.9.22-3.13-.89-6.27-5.36-1.56-2-1.34-2.9-1.34-2.9.67-1.34,6-2.23,10.52-2.9.45,0,.89-.23,1.34-.23C26.85,128.62,25.51,133.53,23.72,134ZM4.25,26.8a37.58,37.58,0,0,0,8.06,9.6c3.35,21.21,15.44,30.37,26.18,38.85q3.69,2.69,6.71,5.36c-3.13-1.56-6.27-3.12-9.4-4.46C19.24,68.55,2,60.74,4.25,26.8Zm36.47,89.09a51.5,51.5,0,0,1-8,2c.45-3.79.89-8,1.57-12.72.89-8.49,1.79-17.42,3.35-23.9C48.78,86.42,57.73,92,57.51,107.41A51,51,0,0,1,40.72,115.89Zm20.81-12.06C60.64,87.31,50.79,79.72,40.72,71.9,27.08,61.41,13,50.69,15.22,16.08,23.05,31,34.91,35.5,46.32,40c12.75,4.91,24.84,9.6,31.55,28.58-.22,1.12-.67,2-.9,3.13C73.84,83.29,70.71,94.9,61.53,103.83ZM79.66,62.52C73.84,49.8,65.34,44,56.39,39.75c6.71-9.16,14.1-14.52,20.81-15,5.37-.45,10.51,2,15.21,7.37l.23.22A33.18,33.18,0,0,1,98.23,40C87.49,44.21,82.79,52.7,79.66,62.52Z" transform="translate(-0.08)"/><circle class="cls-4" cx="80.92" cy="37" r="2"/><path class="cls-5" d="M18.78,45.6l6.7-3.86a5.47,5.47,0,0,1,4.17-.55A5.51,5.51,0,0,1,31,51.27l-6.7,3.86a1.76,1.76,0,0,1-2.41-.64L18.14,48A1.75,1.75,0,0,1,18,46.68,1.79,1.79,0,0,1,18.78,45.6Zm11.54,4.52A4.06,4.06,0,0,0,31.54,49a4.18,4.18,0,0,0,.73-1.46,4.07,4.07,0,0,0,.1-1.63,4.2,4.2,0,0,0-.52-1.54,4.1,4.1,0,0,0-1.08-1.23,4.16,4.16,0,0,0-1.46-.72,4.26,4.26,0,0,0-1.63-.11,4.21,4.21,0,0,0-1.54.53l-6.7,3.86a.49.49,0,0,0-.13.12.48.48,0,0,0-.08.16.91.91,0,0,0,0,.17.44.44,0,0,0,.06.16L23,53.83a.45.45,0,0,0,.6.16Z" transform="translate(-0.08)"/><path class="cls-6" d="M27,44.33A2.5,2.5,0,0,1,28.4,44a2.51,2.51,0,0,1,2.2,1.69,2.48,2.48,0,0,1-.72,2.68,2.48,2.48,0,0,1-2.75.36,2.42,2.42,0,0,1-1.06-1A2.51,2.51,0,0,1,27,44.33Zm1.81,3.13a1.11,1.11,0,0,0,.44-.47,1.17,1.17,0,0,0,.1-.64,1.11,1.11,0,0,0-1.45-.9,1.11,1.11,0,0,0-.53.38,1.07,1.07,0,0,0-.22.6,1,1,0,0,0,.14.62,1.12,1.12,0,0,0,1.52.41Z" transform="translate(-0.08)"/></g></g></g></svg>