<svg xmlns="http://www.w3.org/2000/svg" xmlns:xlink="http://www.w3.org/1999/xlink" viewBox="0 0 355.05 225.25"><defs><style>.cls-1{fill:none;}.cls-2{clip-path:url(#clip-path);}.cls-3{fill:url(#linear-gradient);}.cls-4,.cls-7{fill:#2095be;}.cls-5{fill:url(#linear-gradient-2);}.cls-13,.cls-6{fill:#3068a4;}.cls-7{font-size:14px;font-family:Graphik-Light, Graphik;font-weight:300;}.cls-8{letter-spacing:0em;}.cls-9{letter-spacing:0em;}.cls-10{letter-spacing:-0.01em;}.cls-11{letter-spacing:-0.03em;}.cls-12{letter-spacing:0em;}.cls-13{font-size:48px;font-family:Graphik-Semibold, Graphik;font-weight:600;}.cls-14{letter-spacing:-0.04em;}.cls-15{letter-spacing:0em;}</style><clipPath id="clip-path"><rect class="cls-1" x="121.03" width="113" height="138"/></clipPath><linearGradient id="linear-gradient" x1="147.74" y1="-677.94" x2="220.53" y2="-679.88" gradientTransform="matrix(1, 0, 0, -1, 0, -608.6)" gradientUnits="userSpaceOnUse"><stop offset="0" stop-color="#335491"/><stop offset="1" stop-color="#1f8bb6"/></linearGradient><linearGradient id="linear-gradient-2" x1="151.07" y1="-654.34" x2="142.5" y2="-658.8" xlink:href="#linear-gradient"/></defs><g id="Layer_2" data-name="Layer 2"><g id="Logo"><g class="cls-2"><path class="cls-3" d="M234,46l-10.52-6.25a31.59,31.59,0,0,0-6.71-9.83l-.23-.22C211,23.45,204.71,20.54,198.22,21c-8.28.67-16.78,6.7-24.39,17.42a40.35,40.35,0,0,0-4.7-1.79c-13.2-5.13-25.28-9.82-32.22-28.8L134,0l-.89,8.26a121.24,121.24,0,0,0-.67,21.66A40.83,40.83,0,0,1,125.72,19l-2.9-6.7-.9,7.15c-5.15,42.87,15.22,52,33.12,60.07-1.79,6.69-2.69,16.07-3.81,25.23-.44,4.24-.89,9.15-1.56,13.84-.9.23-1.79.23-2.46.45-7.16,1.12-12.31,1.79-13.65,5.36-1.12,2.9.89,5.8,1.79,6.92,2.23,3.13,5.59,6.92,9.17,6.92a2.85,2.85,0,0,0,1.34-.22c4-1.12,6-6.7,7.61-15.85a87.73,87.73,0,0,0,9.85-2.24c28.64-8.93,34-29,38.71-46.67C205.38,61,208.29,50,218.81,45.11,221.72,43.54,234,46,234,46Zm-89.29,88c-.89.22-3.13-.89-6.26-5.36-1.57-2-1.34-2.9-1.34-2.9.67-1.34,6-2.23,10.51-2.9.45,0,.9-.23,1.35-.23C147.88,128.62,146.53,133.53,144.74,134ZM125.28,26.8a37.55,37.55,0,0,0,8.05,9.6c3.36,21.21,15.44,30.37,26.18,38.85q3.69,2.69,6.72,5.36c-3.14-1.56-6.27-3.12-9.4-4.46C140.27,68.55,123,60.74,125.28,26.8Zm36.47,89.09a51.5,51.5,0,0,1-8.05,2c.44-3.79.89-8,1.56-12.72.9-8.49,1.79-17.42,3.36-23.9,11.19,5.14,20.14,10.72,19.91,26.13A51,51,0,0,1,161.75,115.89Zm20.81-12.06c-.89-16.52-10.74-24.11-20.81-31.93C148.1,61.41,134,50.69,136.24,16.08c7.83,15,19.69,19.42,31.1,23.89,12.76,4.91,24.84,9.6,31.56,28.58-.23,1.12-.68,2-.9,3.13C194.87,83.29,191.73,94.9,182.56,103.83Zm18.13-41.31C194.87,49.8,186.36,44,177.41,39.75c6.72-9.16,14.1-14.52,20.81-15,5.37-.45,10.52,2,15.22,7.37l.22.22a33.21,33.21,0,0,1,5.6,7.59C208.52,44.21,203.82,52.7,200.69,62.52Z"/><circle class="cls-4" cx="202.03" cy="37" r="2"/><path class="cls-5" d="M139.81,45.6l6.69-3.86a5.5,5.5,0,1,1,5.5,9.53l-6.69,3.86a1.8,1.8,0,0,1-1.34.18,1.77,1.77,0,0,1-1.07-.82L139.16,48a1.79,1.79,0,0,1-.17-1.34A1.75,1.75,0,0,1,139.81,45.6Zm11.53,4.52a4.19,4.19,0,0,0,1.95-2.54A4.07,4.07,0,0,0,153.4,46a4.2,4.2,0,0,0-.52-1.54,4.17,4.17,0,0,0-5.72-1.53l-6.69,3.86a.37.37,0,0,0-.13.12.35.35,0,0,0-.08.16.32.32,0,0,0,0,.17.44.44,0,0,0,.06.16L144,53.83a.45.45,0,0,0,.27.2.44.44,0,0,0,.34,0Z"/><path class="cls-6" d="M148,44.33a2.53,2.53,0,0,1,2.77.19,2.52,2.52,0,0,1,.85,1.18,2.5,2.5,0,0,1-3.48,3,2.5,2.5,0,0,1-.14-4.41Zm1.8,3.13a1.11,1.11,0,0,0,.44-.47,1.18,1.18,0,0,0,.11-.64,1.07,1.07,0,0,0-.27-.58,1.05,1.05,0,0,0-.55-.34,1.08,1.08,0,0,0-.64,0,1,1,0,0,0-.52.38,1.16,1.16,0,0,0-.23.6,1.11,1.11,0,0,0,1.66,1Z"/></g><text class="cls-7" transform="translate(102.14 222.28)">A digi<tspan class="cls-8" x="35.94" y="0">t</tspan><tspan class="cls-9" x="40.74" y="0">al </tspan><tspan class="cls-10" x="54.71" y="0">w</tspan><tspan x="65.44" y="0">allet </tspan><tspan class="cls-11" x="95" y="0">f</tspan><tspan x="99.31" y="0">or </tspan><tspan class="cls-12" x="115.92" y="0">t</tspan><tspan x="120.58" y="0">eens</tspan></text><text class="cls-13" transform="translate(0 191.33)">Stripling <tspan class="cls-14" x="210.14" y="0">W</tspan><tspan class="cls-15" x="254.83" y="0">allet</tspan></text></g></g></svg>