<svg xmlns="http://www.w3.org/2000/svg" xmlns:xlink="http://www.w3.org/1999/xlink" viewBox="0 0 619.71 412.71"><defs><style>.cls-1{fill:none;}.cls-2{fill:#1d1d1b;}.cls-3{clip-path:url(#clip-path);}.cls-4{fill:url(#linear-gradient);}.cls-5,.cls-8{fill:#2095be;}.cls-6{fill:url(#linear-gradient-2);}.cls-14,.cls-7{fill:#3068a4;}.cls-8{font-size:14px;font-family:Graphik-Light, Graphik;font-weight:300;}.cls-9{letter-spacing:0em;}.cls-10{letter-spacing:0em;}.cls-11{letter-spacing:-0.01em;}.cls-12{letter-spacing:-0.03em;}.cls-13{letter-spacing:0em;}.cls-14{font-size:48px;font-family:Graphik-Semibold, Graphik;font-weight:600;}.cls-15{letter-spacing:-0.04em;}.cls-16{letter-spacing:0em;}</style><clipPath id="clip-path"><rect class="cls-1" x="253.36" y="93.73" width="113" height="138"/></clipPath><linearGradient id="linear-gradient" x1="280.08" y1="-578.64" x2="352.86" y2="-580.58" gradientTransform="matrix(1, 0, 0, -1, 0, -415.57)" gradientUnits="userSpaceOnUse"><stop offset="0" stop-color="#335491"/><stop offset="1" stop-color="#1f8bb6"/></linearGradient><linearGradient id="linear-gradient-2" x1="283.41" y1="-555.05" x2="274.83" y2="-559.5" xlink:href="#linear-gradient"/></defs><g id="Layer_2" data-name="Layer 2"><g id="Logo"><rect class="cls-2" width="619.71" height="412.71"/><g class="cls-3"><path class="cls-4" d="M366.36,139.73l-10.52-6.25a31.42,31.42,0,0,0-6.71-9.83l-.23-.22c-5.59-6.25-11.86-9.16-18.34-8.71-8.28.67-16.79,6.7-24.39,17.42a41.76,41.76,0,0,0-4.7-1.79c-13.21-5.13-25.29-9.82-32.23-28.8l-2.9-7.82-.9,8.26a122.21,122.21,0,0,0-.67,21.66,40.81,40.81,0,0,1-6.71-10.94l-2.91-6.7-.9,7.15c-5.14,42.87,15.22,52,33.12,60.07-1.79,6.7-2.69,16.07-3.8,25.23-.45,4.24-.9,9.15-1.57,13.84-.9.23-1.79.23-2.46.45-7.16,1.12-12.31,1.79-13.65,5.36-1.12,2.9.89,5.8,1.79,6.92,2.24,3.13,5.59,6.92,9.17,6.92a2.85,2.85,0,0,0,1.34-.22c4-1.12,6.05-6.7,7.61-15.85a87.24,87.24,0,0,0,9.85-2.24c28.64-8.93,34-29,38.71-46.67,3.36-12.28,6.26-23.22,16.78-28.13C354.05,137.27,366.36,139.73,366.36,139.73Zm-89.28,88c-.9.22-3.14-.89-6.27-5.36-1.57-2-1.34-2.9-1.34-2.9.67-1.34,6-2.23,10.51-2.9.45,0,.9-.23,1.35-.23C280.21,222.35,278.87,227.26,277.08,227.71ZM257.61,120.53a37.75,37.75,0,0,0,8.05,9.6C269,151.34,281.1,160.5,291.84,169c2.47,1.79,4.7,3.58,6.72,5.36-3.14-1.56-6.27-3.12-9.4-4.46C272.6,162.28,255.37,154.47,257.61,120.53Zm36.47,89.09a51.5,51.5,0,0,1-8.05,2c.44-3.79.89-8,1.56-12.72.9-8.49,1.79-17.42,3.36-23.9,11.19,5.14,20.14,10.72,19.91,26.13A51,51,0,0,1,294.08,209.62Zm20.81-12.05c-.89-16.53-10.74-24.12-20.81-31.94-13.65-10.49-27.74-21.21-25.51-55.82,7.83,15,19.69,19.43,31.11,23.89,12.75,4.91,24.83,9.6,31.55,28.58-.23,1.12-.67,2-.9,3.13C327.2,177,324.07,188.63,314.89,197.57ZM333,156.26c-5.82-12.73-14.32-18.54-23.27-22.78,6.71-9.16,14.09-14.52,20.81-15,5.37-.45,10.51,2,15.21,7.37l.22.22a33.43,33.43,0,0,1,5.6,7.59C340.85,137.94,336.15,146.43,333,156.26Z"/><circle class="cls-5" cx="334.36" cy="130.73" r="2"/><path class="cls-6" d="M272.14,139.34l6.69-3.87a5.5,5.5,0,1,1,5.5,9.53l-6.69,3.86a1.76,1.76,0,0,1-2.41-.64l-3.74-6.47a1.79,1.79,0,0,1-.17-1.34A1.73,1.73,0,0,1,272.14,139.34Zm11.53,4.51a4.2,4.2,0,0,0,2.06-4.17,4.2,4.2,0,0,0-.52-1.54,4.24,4.24,0,0,0-1.08-1.23,4.16,4.16,0,0,0-1.46-.72,4.08,4.08,0,0,0-1.63-.1,4.24,4.24,0,0,0-1.55.52l-6.69,3.87a.28.28,0,0,0-.13.11.48.48,0,0,0-.08.16.47.47,0,0,0,0,.17.49.49,0,0,0,.06.17l3.73,6.47a.45.45,0,0,0,.27.2.44.44,0,0,0,.34,0Z"/><path class="cls-7" d="M280.34,138.07a2.42,2.42,0,0,1,1.41-.33,2.47,2.47,0,0,1,1.36.51,2.52,2.52,0,0,1,.85,1.18,2.47,2.47,0,0,1,0,1.45,2.49,2.49,0,0,1-2.08,1.83,2.52,2.52,0,0,1-2.5-1.23,2.51,2.51,0,0,1,.92-3.41Zm1.8,3.12a1.05,1.05,0,0,0,.44-.47,1.11,1.11,0,0,0-.7-1.56,1.11,1.11,0,0,0-.65,0,1.09,1.09,0,0,0-.52.38,1.16,1.16,0,0,0-.23.6,1.13,1.13,0,0,0,.82,1.14A1.07,1.07,0,0,0,282.14,141.19Z"/></g><text class="cls-8" transform="translate(234.48 316.02)">A digi<tspan class="cls-9" x="35.94" y="0">t</tspan><tspan class="cls-10" x="40.74" y="0">al </tspan><tspan class="cls-11" x="54.71" y="0">w</tspan><tspan x="65.44" y="0">allet </tspan><tspan class="cls-12" x="95" y="0">f</tspan><tspan x="99.31" y="0">or </tspan><tspan class="cls-13" x="115.92" y="0">t</tspan><tspan x="120.58" y="0">eens</tspan></text><text class="cls-14" transform="translate(132.33 285.06)">Stripling <tspan class="cls-15" x="210.14" y="0">W</tspan><tspan class="cls-16" x="254.83" y="0">allet</tspan></text></g></g></svg>